<?xml version="1.0" encoding="utf-8"?>
<!-- Generator: Adobe Illustrator 15.0.0, SVG Export Plug-In . SVG Version: 6.00 Build 0)  -->
<!DOCTYPE svg PUBLIC "-//W3C//DTD SVG 1.1//EN" "http://www.w3.org/Graphics/SVG/1.1/DTD/svg11.dtd">
<svg version="1.1" xmlns="http://www.w3.org/2000/svg" xmlns:xlink="http://www.w3.org/1999/xlink" x="0px" y="0px" width="70px"
	 height="70px" viewBox="0 0 70 70" enable-background="new 0 0 70 70" xml:space="preserve">
<g id="outterBorder">
	<radialGradient id="SVGID_1_" cx="35" cy="35" r="35" gradientUnits="userSpaceOnUse">
		<stop  offset="0.6545" style="stop-color:#000000"/>
		<stop  offset="1" style="stop-color:#FFFFFF"/>
	</radialGradient>
	<path fill="url(#SVGID_1_)" stroke="#4D4D4D" stroke-miterlimit="10" d="M35,0C15.67,0,0,15.67,0,35s15.67,35,35,35s35-15.67,35-35
		S54.33,0,35,0z M35,65.167C18.339,65.167,4.833,51.661,4.833,35S18.339,4.833,35,4.833S65.167,18.339,65.167,35
		S51.661,65.167,35,65.167z"/>
</g>
<g id="innerFill">
	<circle fill="#FFEBEB" stroke="#000000" stroke-width="0.5" stroke-miterlimit="10" cx="35" cy="35" r="30.167"/>
	<circle fill="#FFFAE0" stroke="#000000" stroke-width="0.5" stroke-miterlimit="10" cx="-65" cy="18" r="30.167"/>
</g>
<g id="_x22_P_x22_">
	<g>
		<g>
			<path fill="#FFFFFF" d="M-33.506,49.745c4.546,0,8.037,0.8,10.472,2.398c2.435,1.599,3.652,4.217,3.652,7.854
				c0,3.667-1.232,6.314-3.696,7.942s-5.984,2.442-10.56,2.442h-2.156v10.208h-6.864V50.538c1.496-0.293,3.08-0.499,4.752-0.616
				C-36.234,49.805-34.768,49.745-33.506,49.745z M-33.066,55.597c-0.499,0-0.99,0.015-1.474,0.044
				c-0.484,0.03-0.902,0.06-1.254,0.088v8.8h2.156c2.376,0,4.165-0.322,5.368-0.968c1.202-0.645,1.804-1.848,1.804-3.608
				c0-0.85-0.154-1.554-0.462-2.112c-0.308-0.557-0.748-1.004-1.32-1.342c-0.572-0.337-1.27-0.572-2.09-0.704
				C-31.16,55.664-32.069,55.597-33.066,55.597z"/>
		</g>
		<g>
			<path fill="none" stroke="#231F20" d="M-33.506,49.745c4.546,0,8.037,0.8,10.472,2.398c2.435,1.599,3.652,4.217,3.652,7.854
				c0,3.667-1.232,6.314-3.696,7.942s-5.984,2.442-10.56,2.442h-2.156v10.208h-6.864V50.538c1.496-0.293,3.08-0.499,4.752-0.616
				C-36.234,49.805-34.768,49.745-33.506,49.745z M-33.066,55.597c-0.499,0-0.99,0.015-1.474,0.044
				c-0.484,0.03-0.902,0.06-1.254,0.088v8.8h2.156c2.376,0,4.165-0.322,5.368-0.968c1.202-0.645,1.804-1.848,1.804-3.608
				c0-0.85-0.154-1.554-0.462-2.112c-0.308-0.557-0.748-1.004-1.32-1.342c-0.572-0.337-1.27-0.572-2.09-0.704
				C-31.16,55.664-32.069,55.597-33.066,55.597z"/>
		</g>
		<g>
			<path fill="none" stroke="#B3B3B3" stroke-width="0.5" d="M-33.506,49.745c4.546,0,8.037,0.8,10.472,2.398
				c2.435,1.599,3.652,4.217,3.652,7.854c0,3.667-1.232,6.314-3.696,7.942s-5.984,2.442-10.56,2.442h-2.156v10.208h-6.864V50.538
				c1.496-0.293,3.08-0.499,4.752-0.616C-36.234,49.805-34.768,49.745-33.506,49.745z M-33.066,55.597
				c-0.499,0-0.99,0.015-1.474,0.044c-0.484,0.03-0.902,0.06-1.254,0.088v8.8h2.156c2.376,0,4.165-0.322,5.368-0.968
				c1.202-0.645,1.804-1.848,1.804-3.608c0-0.85-0.154-1.554-0.462-2.112c-0.308-0.557-0.748-1.004-1.32-1.342
				c-0.572-0.337-1.27-0.572-2.09-0.704C-31.16,55.664-32.069,55.597-33.066,55.597z"/>
		</g>
	</g>
	<g>
		<g>
			<path fill="#FFFFFF" d="M50.354,34.957c0,2.64-0.411,4.943-1.232,6.908c-0.822,1.965-1.988,3.593-3.498,4.884
				c-1.511,1.291-3.352,2.259-5.522,2.904c-2.171,0.645-4.605,0.968-7.304,0.968c-1.232,0-2.669-0.052-4.312-0.154
				c-1.643-0.104-3.256-0.315-4.84-0.638v-29.7c1.584-0.292,3.234-0.491,4.95-0.594c1.716-0.103,3.19-0.154,4.422-0.154
				c2.61,0,4.979,0.294,7.106,0.88c2.126,0.587,3.952,1.511,5.478,2.772c1.525,1.261,2.698,2.875,3.52,4.84
				C49.943,29.839,50.354,32.2,50.354,34.957z M30.51,44.637c0.323,0.029,0.697,0.051,1.122,0.066
				c0.425,0.015,0.931,0.022,1.518,0.022c3.432,0,5.977-0.865,7.634-2.596c1.657-1.73,2.486-4.121,2.486-7.172
				c0-3.197-0.792-5.617-2.376-7.26c-1.584-1.643-4.092-2.464-7.524-2.464c-0.47,0-0.954,0.008-1.452,0.022
				c-0.499,0.015-0.968,0.052-1.408,0.11V44.637z"/>
		</g>
		<g>
			<path fill="none" stroke="#231F20" d="M50.354,34.957c0,2.64-0.411,4.943-1.232,6.908c-0.822,1.965-1.988,3.593-3.498,4.884
				c-1.511,1.291-3.352,2.259-5.522,2.904c-2.171,0.645-4.605,0.968-7.304,0.968c-1.232,0-2.669-0.052-4.312-0.154
				c-1.643-0.104-3.256-0.315-4.84-0.638v-29.7c1.584-0.292,3.234-0.491,4.95-0.594c1.716-0.103,3.19-0.154,4.422-0.154
				c2.61,0,4.979,0.294,7.106,0.88c2.126,0.587,3.952,1.511,5.478,2.772c1.525,1.261,2.698,2.875,3.52,4.84
				C49.943,29.839,50.354,32.2,50.354,34.957z M30.51,44.637c0.323,0.029,0.697,0.051,1.122,0.066
				c0.425,0.015,0.931,0.022,1.518,0.022c3.432,0,5.977-0.865,7.634-2.596c1.657-1.73,2.486-4.121,2.486-7.172
				c0-3.197-0.792-5.617-2.376-7.26c-1.584-1.643-4.092-2.464-7.524-2.464c-0.47,0-0.954,0.008-1.452,0.022
				c-0.499,0.015-0.968,0.052-1.408,0.11V44.637z"/>
		</g>
		<g>
			<path fill="none" stroke="#999999" stroke-width="0.5" d="M50.354,34.957c0,2.64-0.411,4.943-1.232,6.908
				c-0.822,1.965-1.988,3.593-3.498,4.884c-1.511,1.291-3.352,2.259-5.522,2.904c-2.171,0.645-4.605,0.968-7.304,0.968
				c-1.232,0-2.669-0.052-4.312-0.154c-1.643-0.104-3.256-0.315-4.84-0.638v-29.7c1.584-0.292,3.234-0.491,4.95-0.594
				c1.716-0.103,3.19-0.154,4.422-0.154c2.61,0,4.979,0.294,7.106,0.88c2.126,0.587,3.952,1.511,5.478,2.772
				c1.525,1.261,2.698,2.875,3.52,4.84C49.943,29.839,50.354,32.2,50.354,34.957z M30.51,44.637
				c0.323,0.029,0.697,0.051,1.122,0.066c0.425,0.015,0.931,0.022,1.518,0.022c3.432,0,5.977-0.865,7.634-2.596
				c1.657-1.73,2.486-4.121,2.486-7.172c0-3.197-0.792-5.617-2.376-7.26c-1.584-1.643-4.092-2.464-7.524-2.464
				c-0.47,0-0.954,0.008-1.452,0.022c-0.499,0.015-0.968,0.052-1.408,0.11V44.637z"/>
		</g>
	</g>
	<text transform="matrix(1 0 0 1 -115.333 0.0757)" font-family="'Ubuntu-Bold'" font-size="44">W</text>
</g>
<g id="innerSheen">
	<g>
		<linearGradient id="SVGID_2_" gradientUnits="userSpaceOnUse" x1="35" y1="4.833" x2="35" y2="64.6749">
			<stop  offset="0" style="stop-color:#FFFFFF;stop-opacity:0.43"/>
			<stop  offset="0.6606" style="stop-color:#FFFFFF;stop-opacity:0.2365"/>
		</linearGradient>
		<circle fill="url(#SVGID_2_)" cx="35" cy="35" r="30.167"/>
		<circle fill="none" stroke="#4D944D" stroke-width="0.2" stroke-miterlimit="10" cx="35" cy="35" r="30.167"/>
		<circle fill="none" stroke="#910000" stroke-width="0.25" stroke-miterlimit="10" cx="35" cy="35" r="30.167"/>
	</g>
</g>
<g id="outterSheen">
	
		<linearGradient id="SVGID_3_" gradientUnits="userSpaceOnUse" x1="35" y1="0.3335" x2="35" y2="70.1841" gradientTransform="matrix(1 0 0 1 -9.765625e-004 9.765625e-004)">
		<stop  offset="0" style="stop-color:#FFFFFF;stop-opacity:0.43"/>
		<stop  offset="0.6606" style="stop-color:#FFFFFF;stop-opacity:0.2365"/>
	</linearGradient>
	<circle fill="url(#SVGID_3_)" stroke="#4D4D4D" stroke-width="0.2" stroke-miterlimit="10" cx="35" cy="35.001" r="34.925"/>
	<radialGradient id="SVGID_4_" cx="35" cy="-45" r="35" gradientUnits="userSpaceOnUse">
		<stop  offset="0.6545" style="stop-color:#F7931E"/>
		<stop  offset="1" style="stop-color:#FFFFFF"/>
	</radialGradient>
	<path fill="url(#SVGID_4_)" d="M35-80C15.67-80,0-64.33,0-45s15.67,35,35,35s35-15.67,35-35S54.33-80,35-80z M35-14.833
		C18.339-14.833,4.833-28.339,4.833-45S18.339-75.167,35-75.167S65.167-61.661,65.167-45S51.661-14.833,35-14.833z"/>
	<text transform="matrix(1 0 0 1 22.1841 -29.4995)" font-family="'Ubuntu-Bold'" font-size="44">P</text>
</g>
</svg>
