<?xml version="1.0" encoding="utf-8"?>
<!-- Generator: Adobe Illustrator 15.0.0, SVG Export Plug-In . SVG Version: 6.00 Build 0)  -->
<!DOCTYPE svg PUBLIC "-//W3C//DTD SVG 1.1//EN" "http://www.w3.org/Graphics/SVG/1.1/DTD/svg11.dtd">
<svg version="1.1" xmlns="http://www.w3.org/2000/svg" xmlns:xlink="http://www.w3.org/1999/xlink" x="0px" y="0px" width="70px"
	 height="70px" viewBox="0 0 70 70" enable-background="new 0 0 70 70" xml:space="preserve">
<g id="outterBorder">
	<radialGradient id="SVGID_1_" cx="35" cy="35" r="35" gradientUnits="userSpaceOnUse">
		<stop  offset="0.6545" style="stop-color:#000000"/>
		<stop  offset="1" style="stop-color:#FFFFFF"/>
	</radialGradient>
	<path fill="url(#SVGID_1_)" stroke="#4D4D4D" stroke-miterlimit="10" d="M35,0C15.67,0,0,15.67,0,35s15.67,35,35,35s35-15.67,35-35
		S54.33,0,35,0z M35,65.167C18.339,65.167,4.833,51.661,4.833,35S18.339,4.833,35,4.833S65.167,18.339,65.167,35
		S51.661,65.167,35,65.167z"/>
</g>
<g id="innerFill">
	<circle fill="#FFFAE0" stroke="#000000" stroke-width="0.5" stroke-miterlimit="10" cx="35" cy="35" r="30.167"/>
</g>
<g id="_x22_P_x22_">
	<g>
		<g>
			<path fill="#FFFFFF" d="M34.856,19.656c4.546,0,8.037,0.8,10.472,2.398c2.435,1.599,3.652,4.217,3.652,7.854
				c0,3.667-1.232,6.314-3.696,7.942s-5.984,2.442-10.56,2.442h-2.156V50.5h-6.864V20.449c1.496-0.293,3.08-0.499,4.752-0.616
				C32.128,19.716,33.595,19.656,34.856,19.656z M35.296,25.508c-0.499,0-0.99,0.015-1.474,0.044
				c-0.484,0.03-0.902,0.06-1.254,0.088v8.8h2.156c2.376,0,4.165-0.322,5.368-0.968c1.202-0.645,1.804-1.848,1.804-3.608
				c0-0.85-0.154-1.554-0.462-2.112c-0.308-0.557-0.748-1.004-1.32-1.342c-0.572-0.337-1.27-0.572-2.09-0.704
				C37.203,25.575,36.293,25.508,35.296,25.508z"/>
		</g>
		<g>
			<path fill="none" stroke="#231F20" d="M34.856,19.656c4.546,0,8.037,0.8,10.472,2.398c2.435,1.599,3.652,4.217,3.652,7.854
				c0,3.667-1.232,6.314-3.696,7.942s-5.984,2.442-10.56,2.442h-2.156V50.5h-6.864V20.449c1.496-0.293,3.08-0.499,4.752-0.616
				C32.128,19.716,33.595,19.656,34.856,19.656z M35.296,25.508c-0.499,0-0.99,0.015-1.474,0.044
				c-0.484,0.03-0.902,0.06-1.254,0.088v8.8h2.156c2.376,0,4.165-0.322,5.368-0.968c1.202-0.645,1.804-1.848,1.804-3.608
				c0-0.85-0.154-1.554-0.462-2.112c-0.308-0.557-0.748-1.004-1.32-1.342c-0.572-0.337-1.27-0.572-2.09-0.704
				C37.203,25.575,36.293,25.508,35.296,25.508z"/>
		</g>
		<g>
			<path fill="none" stroke="#B3B3B3" stroke-width="0.5" d="M34.856,19.656c4.546,0,8.037,0.8,10.472,2.398
				c2.435,1.599,3.652,4.217,3.652,7.854c0,3.667-1.232,6.314-3.696,7.942s-5.984,2.442-10.56,2.442h-2.156V50.5h-6.864V20.449
				c1.496-0.293,3.08-0.499,4.752-0.616C32.128,19.716,33.595,19.656,34.856,19.656z M35.296,25.508
				c-0.499,0-0.99,0.015-1.474,0.044c-0.484,0.03-0.902,0.06-1.254,0.088v8.8h2.156c2.376,0,4.165-0.322,5.368-0.968
				c1.202-0.645,1.804-1.848,1.804-3.608c0-0.85-0.154-1.554-0.462-2.112c-0.308-0.557-0.748-1.004-1.32-1.342
				c-0.572-0.337-1.27-0.572-2.09-0.704C37.203,25.575,36.293,25.508,35.296,25.508z"/>
		</g>
	</g>
</g>
<g id="innerSheen">
	<g>
		<linearGradient id="SVGID_2_" gradientUnits="userSpaceOnUse" x1="35" y1="4.833" x2="35" y2="64.6749">
			<stop  offset="0" style="stop-color:#FFFFFF;stop-opacity:0.84"/>
			<stop  offset="0.2788" style="stop-color:#FFFFFF;stop-opacity:0.5159"/>
			<stop  offset="0.7636" style="stop-color:#FFFFFF;stop-opacity:0"/>
		</linearGradient>
		<circle fill="url(#SVGID_2_)" cx="35" cy="35" r="30.167"/>
		<circle fill="none" stroke="#F7931E" stroke-width="0.5" stroke-miterlimit="10" cx="35" cy="35" r="30.167"/>
		<circle fill="none" stroke="#808080" stroke-width="0.25" stroke-miterlimit="10" cx="35" cy="35" r="30.167"/>
	</g>
</g>
<g id="outterSheen">
	
		<linearGradient id="SVGID_3_" gradientUnits="userSpaceOnUse" x1="35" y1="0.3335" x2="35" y2="70.1841" gradientTransform="matrix(1 0 0 1 -9.765625e-004 9.765625e-004)">
		<stop  offset="0" style="stop-color:#FFFFFF;stop-opacity:0.43"/>
		<stop  offset="0.6606" style="stop-color:#FFFFFF;stop-opacity:0.2365"/>
	</linearGradient>
	<circle fill="url(#SVGID_3_)" stroke="#4D4D4D" stroke-width="0.2" stroke-miterlimit="10" cx="35" cy="35.001" r="34.925"/>
	<radialGradient id="SVGID_4_" cx="35" cy="-45" r="35" gradientUnits="userSpaceOnUse">
		<stop  offset="0.6545" style="stop-color:#F7931E"/>
		<stop  offset="1" style="stop-color:#FFFFFF"/>
	</radialGradient>
	<path fill="url(#SVGID_4_)" d="M35-80C15.67-80,0-64.33,0-45s15.67,35,35,35s35-15.67,35-35S54.33-80,35-80z M35-14.833
		C18.339-14.833,4.833-28.339,4.833-45S18.339-75.167,35-75.167S65.167-61.661,65.167-45S51.661-14.833,35-14.833z"/>
	<text transform="matrix(1 0 0 1 22.1841 -29.4995)" font-family="'Ubuntu-Bold'" font-size="44">P</text>
</g>
</svg>
