<?xml version="1.0" encoding="utf-8"?>
<!-- Generator: Adobe Illustrator 15.0.0, SVG Export Plug-In . SVG Version: 6.00 Build 0)  -->
<!DOCTYPE svg PUBLIC "-//W3C//DTD SVG 1.1//EN" "http://www.w3.org/Graphics/SVG/1.1/DTD/svg11.dtd">
<svg version="1.1" id="Layer_1" xmlns="http://www.w3.org/2000/svg" xmlns:xlink="http://www.w3.org/1999/xlink" x="0px" y="0px"
	 width="70px" height="70px" viewBox="0 0 70 70" enable-background="new 0 0 70 70" xml:space="preserve">
<radialGradient id="SVGID_1_" cx="31" cy="30" r="35" gradientTransform="matrix(1 0 0 -1 4 65)" gradientUnits="userSpaceOnUse">
	<stop  offset="0.6545" style="stop-color:#000000"/>
	<stop  offset="1" style="stop-color:#FFFFFF"/>
</radialGradient>
<path fill="url(#SVGID_1_)" stroke="#4D4D4D" stroke-miterlimit="10" d="M35,0C15.67,0,0,15.67,0,35s15.67,35,35,35s35-15.67,35-35
	S54.33,0,35,0z M35,65.167C18.339,65.167,4.833,51.661,4.833,35S18.339,4.833,35,4.833S65.167,18.339,65.167,35
	S51.661,65.167,35,65.167z"/>
<circle stroke="#000000" stroke-width="0.5" stroke-miterlimit="10" cx="35" cy="35" r="30.167"/>
<g>
	<g>
		
			<linearGradient id="SVGID_2_" gradientUnits="userSpaceOnUse" x1="31.0005" y1="60.167" x2="31.0005" y2="0.3256" gradientTransform="matrix(1 0 0 -1 4 65)">
			<stop  offset="0" style="stop-color:#FFFFFF;stop-opacity:0.84"/>
			<stop  offset="0.2788" style="stop-color:#FFFFFF;stop-opacity:0.5159"/>
			<stop  offset="0.7636" style="stop-color:#FFFFFF;stop-opacity:0"/>
		</linearGradient>
		<circle fill="url(#SVGID_2_)" cx="35" cy="35" r="30.167"/>
		<circle fill="none" stroke="#F7931E" stroke-width="0.5" stroke-miterlimit="10" cx="35" cy="35" r="30.167"/>
		<circle fill="none" stroke="#808080" stroke-width="0.25" stroke-miterlimit="10" cx="35" cy="35" r="30.167"/>
	</g>
	<g>
		<circle fill="none" stroke="#005F0B" cx="35" cy="35" r="30.167"/>
		<circle fill="none" stroke="#005F0B" cx="35" cy="35" r="30.167"/>
		<circle fill="none" stroke="#005F0B" cx="35" cy="35" r="30.167"/>
	</g>
</g>
<linearGradient id="SVGID_3_" gradientUnits="userSpaceOnUse" x1="31.0015" y1="64.666" x2="31.0015" y2="-5.1831" gradientTransform="matrix(1 0 0 -1 3.999 65.001)">
	<stop  offset="0" style="stop-color:#FFFFFF;stop-opacity:0.43"/>
	<stop  offset="0.6606" style="stop-color:#FFFFFF;stop-opacity:0.2365"/>
</linearGradient>
<circle fill="url(#SVGID_3_)" stroke="#4D4D4D" stroke-width="0.2" stroke-miterlimit="10" cx="35" cy="35.001" r="34.925"/>
<radialGradient id="SVGID_4_" cx="31" cy="110" r="35" gradientTransform="matrix(1 0 0 -1 4 65)" gradientUnits="userSpaceOnUse">
	<stop  offset="0.6545" style="stop-color:#F7931E"/>
	<stop  offset="1" style="stop-color:#FFFFFF"/>
</radialGradient>
<path fill="url(#SVGID_4_)" d="M35-80C15.67-80,0-64.33,0-45s15.67,35,35,35s35-15.67,35-35S54.33-80,35-80z M35-14.833
	C18.339-14.833,4.833-28.339,4.833-45S18.339-75.167,35-75.167S65.167-61.661,65.167-45S51.661-14.833,35-14.833z"/>
<text transform="matrix(1 0 0 1 22.1841 -29.5)" font-family="'Ubuntu-Bold'" font-size="44">P</text>
<path fill="#FFFFFF" d="M38.133,23.509c0.352,1.203,0.739,2.56,1.164,4.07c0.426,1.511,0.879,3.073,1.362,4.686
	c0.483,1.614,0.974,3.227,1.472,4.84s0.98,3.109,1.45,4.487c0.383-1.495,0.772-3.124,1.171-4.884
	c0.396-1.76,0.773-3.578,1.127-5.456c0.354-1.876,0.7-3.747,1.039-5.61c0.339-1.862,0.656-3.659,0.951-5.39h7.13
	c-1.033,5.104-2.222,10.282-3.563,15.532c-1.342,5.251-2.795,10.236-4.358,14.96h-6.278c-1.025-2.815-2.021-5.771-2.986-8.866
	c-0.967-3.094-1.918-6.195-2.854-9.306c-0.94,3.108-1.879,6.211-2.819,9.306c-0.94,3.096-1.924,6.051-2.952,8.866h-6.273
	c-1.562-4.724-3.013-9.709-4.353-14.96c-1.34-5.25-2.526-10.428-3.557-15.532h7.436c0.294,1.731,0.619,3.528,0.973,5.39
	c0.354,1.863,0.722,3.733,1.106,5.61c0.383,1.878,0.773,3.696,1.171,5.456s0.804,3.389,1.216,4.884
	c0.528-1.437,1.042-2.962,1.542-4.575c0.499-1.614,0.984-3.228,1.455-4.841c0.47-1.613,0.904-3.168,1.3-4.664
	c0.396-1.496,0.757-2.831,1.08-4.004H38.133z"/>
<path fill="none" stroke="#231F20" d="M38.133,23.509c0.352,1.203,0.739,2.56,1.164,4.07c0.426,1.511,0.879,3.073,1.362,4.686
	c0.483,1.614,0.974,3.227,1.472,4.84s0.98,3.109,1.45,4.487c0.383-1.495,0.772-3.124,1.171-4.884
	c0.396-1.76,0.773-3.578,1.127-5.456c0.354-1.876,0.7-3.747,1.039-5.61c0.339-1.862,0.656-3.659,0.951-5.39h7.13
	c-1.033,5.104-2.222,10.282-3.563,15.532c-1.342,5.251-2.795,10.236-4.358,14.96h-6.278c-1.025-2.815-2.021-5.771-2.986-8.866
	c-0.967-3.094-1.918-6.195-2.854-9.306c-0.94,3.108-1.879,6.211-2.819,9.306c-0.94,3.096-1.924,6.051-2.952,8.866h-6.273
	c-1.562-4.724-3.013-9.709-4.353-14.96c-1.34-5.25-2.526-10.428-3.557-15.532h7.436c0.294,1.731,0.619,3.528,0.973,5.39
	c0.354,1.863,0.722,3.733,1.106,5.61c0.383,1.878,0.773,3.696,1.171,5.456s0.804,3.389,1.216,4.884
	c0.528-1.437,1.042-2.962,1.542-4.575c0.499-1.614,0.984-3.228,1.455-4.841c0.47-1.613,0.904-3.168,1.3-4.664
	c0.396-1.496,0.757-2.831,1.08-4.004H38.133z"/>
<path fill="none" stroke="#CCCCCC" stroke-width="0.5" d="M38.133,23.509c0.352,1.203,0.739,2.56,1.164,4.07
	c0.426,1.511,0.879,3.073,1.362,4.686c0.483,1.614,0.974,3.227,1.472,4.84s0.98,3.109,1.45,4.487
	c0.383-1.495,0.772-3.124,1.171-4.884c0.396-1.76,0.773-3.578,1.127-5.456c0.354-1.876,0.7-3.747,1.039-5.61
	c0.339-1.862,0.656-3.659,0.951-5.39h7.13c-1.033,5.104-2.222,10.282-3.563,15.532c-1.342,5.251-2.795,10.236-4.358,14.96h-6.278
	c-1.025-2.815-2.021-5.771-2.986-8.866c-0.967-3.094-1.918-6.195-2.854-9.306c-0.94,3.108-1.879,6.211-2.819,9.306
	c-0.94,3.096-1.924,6.051-2.952,8.866h-6.273c-1.562-4.724-3.013-9.709-4.353-14.96c-1.34-5.25-2.526-10.428-3.557-15.532h7.436
	c0.294,1.731,0.619,3.528,0.973,5.39c0.354,1.863,0.722,3.733,1.106,5.61c0.383,1.878,0.773,3.696,1.171,5.456
	s0.804,3.389,1.216,4.884c0.528-1.437,1.042-2.962,1.542-4.575c0.499-1.614,0.984-3.228,1.455-4.841
	c0.47-1.613,0.904-3.168,1.3-4.664c0.396-1.496,0.757-2.831,1.08-4.004H38.133z"/>
</svg>
